<?xml version="1.0" encoding="UTF-8" standalone="no"?>
<!DOCTYPE svg PUBLIC "-//W3C//DTD SVG 1.1//EN"
 "http://www.w3.org/Graphics/SVG/1.1/DTD/svg11.dtd">
<!-- Generated by graphviz version 8.0.4 (0)
 -->
<!-- Title: G Pages: 1 -->
<svg width="1379pt" height="275pt"
 viewBox="0.00 0.00 1379.00 275.25" xmlns="http://www.w3.org/2000/svg" xmlns:xlink="http://www.w3.org/1999/xlink">
<g id="graph0" class="graph" transform="scale(1 1) rotate(0) translate(4 271.25)">
<title>G</title>
<polygon fill="white" stroke="none" points="-4,4 -4,-271.25 1375,-271.25 1375,4 -4,4"/>
<!-- p9cqqQSBXFfLGq5t8aIRPltUN6jpzTSAXuaJbmgMT88M -->
<g id="node1" class="node">
<title>p9cqqQSBXFfLGq5t8aIRPltUN6jpzTSAXuaJbmgMT88M</title>
<polygon fill="none" stroke="black" points="0,-0.5 0,-101.5 357.5,-101.5 357.5,-0.5 0,-0.5"/>
<text text-anchor="middle" x="178.38" y="-84.2" font-family="Times,serif" font-size="14.00">9cqqQS::8M</text>
<polyline fill="none" stroke="black" points="0,-76.25 357.5,-76.25"/>
<text text-anchor="middle" x="75.12" y="-58.95" font-family="Times,serif" font-size="14.00">signed: 0BulYf::OE</text>
<polyline fill="none" stroke="black" points="150.25,-51 150.25,-76.25"/>
<text text-anchor="middle" x="253.88" y="-58.95" font-family="Times,serif" font-size="14.00">/image/BrokenMachine.jpg</text>
<polyline fill="none" stroke="black" points="0,-51 357.5,-51"/>
<text text-anchor="middle" x="178.75" y="-33.7" font-family="Times,serif" font-size="14.00">data=(image data)</text>
<polyline fill="none" stroke="black" points="0,-25.75 357.5,-25.75"/>
<text text-anchor="middle" x="178.75" y="-8.45" font-family="Times,serif" font-size="14.00">0 links</text>
</g>
<!-- p2UbiQ1iNGM54xEM1pMNBPjT8wXAdCF&#45;o462JHiuKhRk -->
<g id="node2" class="node">
<title>p2UbiQ1iNGM54xEM1pMNBPjT8wXAdCF&#45;o462JHiuKhRk</title>
<polygon fill="none" stroke="black" points="393.5,-97.88 393.5,-224.12 862.75,-224.12 862.75,-97.88 393.5,-97.88"/>
<text text-anchor="middle" x="627.75" y="-206.82" font-family="Times,serif" font-size="14.00">2UbiQ1::Rk</text>
<polyline fill="none" stroke="black" points="393.5,-198.88 862.75,-198.88"/>
<text text-anchor="middle" x="468.62" y="-181.57" font-family="Times,serif" font-size="14.00">signed: 0BulYf::OE</text>
<polyline fill="none" stroke="black" points="543.75,-173.62 543.75,-198.88"/>
<text text-anchor="middle" x="703.25" y="-181.57" font-family="Times,serif" font-size="14.00">/thread/thread/Coffee machine broke!/msg</text>
<polyline fill="none" stroke="black" points="393.5,-173.62 862.75,-173.62"/>
<text text-anchor="middle" x="628.12" y="-156.32" font-family="Times,serif" font-size="14.00">data=Fix pls?</text>
<polyline fill="none" stroke="black" points="393.5,-148.38 862.75,-148.38"/>
<text text-anchor="middle" x="628.12" y="-131.07" font-family="Times,serif" font-size="14.00">1 links</text>
<polyline fill="none" stroke="black" points="393.5,-123.12 862.75,-123.12"/>
<text text-anchor="middle" x="628.12" y="-105.83" font-family="Times,serif" font-size="14.00">image link: 9cqqQS::8M</text>
</g>
<!-- p2UbiQ1iNGM54xEM1pMNBPjT8wXAdCF&#45;o462JHiuKhRk&#45;&gt;p9cqqQSBXFfLGq5t8aIRPltUN6jpzTSAXuaJbmgMT88M -->
<g id="edge1" class="edge">
<title>p2UbiQ1iNGM54xEM1pMNBPjT8wXAdCF&#45;o462JHiuKhRk:0&#45;&gt;p9cqqQSBXFfLGq5t8aIRPltUN6jpzTSAXuaJbmgMT88M:hash</title>
<path fill="none" stroke="black" d="M393.5,-110C379.32,-110 376.61,-97.69 367.8,-91.92"/>
<polygon fill="black" stroke="black" points="369.08,-88.36 358.5,-89 367.17,-95.09 369.08,-88.36"/>
</g>
<!-- pYtTXpcWEYiniLamzSQkhZtEG4JwO5pKhAasVu5EMdHI -->
<g id="node3" class="node">
<title>pYtTXpcWEYiniLamzSQkhZtEG4JwO5pKhAasVu5EMdHI</title>
<polygon fill="none" stroke="black" points="898.75,-115.25 898.75,-266.75 1371,-266.75 1371,-115.25 898.75,-115.25"/>
<text text-anchor="middle" x="1134.5" y="-249.45" font-family="Times,serif" font-size="14.00">YtTXpc::HI</text>
<polyline fill="none" stroke="black" points="898.75,-241.5 1371,-241.5"/>
<text text-anchor="middle" x="975.38" y="-224.2" font-family="Times,serif" font-size="14.00">signed: Bc8TIJ::QM</text>
<polyline fill="none" stroke="black" points="1052,-216.25 1052,-241.5"/>
<text text-anchor="middle" x="1211.5" y="-224.2" font-family="Times,serif" font-size="14.00">/thread/thread/Coffee machine broke!/msg</text>
<polyline fill="none" stroke="black" points="898.75,-216.25 1371,-216.25"/>
<text text-anchor="middle" x="1134.88" y="-198.95" font-family="Times,serif" font-size="14.00">data=Hey [link:reply to]. Isn’t [link:image link] from 2015?</text>
<polyline fill="none" stroke="black" points="898.75,-191 1371,-191"/>
<text text-anchor="middle" x="1134.88" y="-173.7" font-family="Times,serif" font-size="14.00">2 links</text>
<polyline fill="none" stroke="black" points="898.75,-165.75 1371,-165.75"/>
<text text-anchor="middle" x="1134.88" y="-148.45" font-family="Times,serif" font-size="14.00">reply to: 2UbiQ1::Rk</text>
<polyline fill="none" stroke="black" points="898.75,-140.5 1371,-140.5"/>
<text text-anchor="middle" x="1134.88" y="-123.2" font-family="Times,serif" font-size="14.00">image link: 9cqqQS::8M</text>
</g>
<!-- pYtTXpcWEYiniLamzSQkhZtEG4JwO5pKhAasVu5EMdHI&#45;&gt;p9cqqQSBXFfLGq5t8aIRPltUN6jpzTSAXuaJbmgMT88M -->
<g id="edge3" class="edge">
<title>pYtTXpcWEYiniLamzSQkhZtEG4JwO5pKhAasVu5EMdHI:1&#45;&gt;p9cqqQSBXFfLGq5t8aIRPltUN6jpzTSAXuaJbmgMT88M:hash</title>
<path fill="none" stroke="black" d="M898.75,-128C874.83,-128 884.6,-97.73 862.75,-88 763.29,-43.7 487.19,-86.26 368.18,-88.88"/>
<polygon fill="black" stroke="black" points="368.46,-85.38 358.5,-89 368.54,-92.38 368.46,-85.38"/>
</g>
<!-- pYtTXpcWEYiniLamzSQkhZtEG4JwO5pKhAasVu5EMdHI&#45;&gt;p2UbiQ1iNGM54xEM1pMNBPjT8wXAdCF&#45;o462JHiuKhRk -->
<g id="edge2" class="edge">
<title>pYtTXpcWEYiniLamzSQkhZtEG4JwO5pKhAasVu5EMdHI:0&#45;&gt;p2UbiQ1iNGM54xEM1pMNBPjT8wXAdCF&#45;o462JHiuKhRk:hash</title>
<path fill="none" stroke="black" d="M898.75,-153C872.59,-153 887.15,-195.78 873.08,-208.49"/>
<polygon fill="black" stroke="black" points="872.09,-205.47 863.75,-212 874.34,-212.09 872.09,-205.47"/>
</g>
</g>
</svg>
