<?xml version="1.0" encoding="UTF-8" standalone="no"?>
<!DOCTYPE svg PUBLIC "-//W3C//DTD SVG 1.1//EN"
 "http://www.w3.org/Graphics/SVG/1.1/DTD/svg11.dtd">
<!-- Generated by graphviz version 8.0.4 (0)
 -->
<!-- Title: G Pages: 1 -->
<svg width="1397pt" height="275pt"
 viewBox="0.00 0.00 1397.00 275.25" xmlns="http://www.w3.org/2000/svg" xmlns:xlink="http://www.w3.org/1999/xlink">
<g id="graph0" class="graph" transform="scale(1 1) rotate(0) translate(4 271.25)">
<title>G</title>
<polygon fill="white" stroke="none" points="-4,4 -4,-271.25 1393,-271.25 1393,4 -4,4"/>
<!-- pMU1QShgrSp4HdEsN9sLx&#45;MtEWZ7I3vXliAV1iUWHTD4 -->
<g id="node1" class="node">
<title>pMU1QShgrSp4HdEsN9sLx&#45;MtEWZ7I3vXliAV1iUWHTD4</title>
<polygon fill="none" stroke="black" points="0,-0.5 0,-101.5 365,-101.5 365,-0.5 0,-0.5"/>
<text text-anchor="middle" x="182.25" y="-84.2" font-family="Times,serif" font-size="14.00">MU1QSh::D4</text>
<polyline fill="none" stroke="black" points="0,-76.25 365,-76.25"/>
<text text-anchor="middle" x="78.88" y="-58.95" font-family="Times,serif" font-size="14.00">signed: ZqfWVN::sg</text>
<polyline fill="none" stroke="black" points="157.75,-51 157.75,-76.25"/>
<text text-anchor="middle" x="261.38" y="-58.95" font-family="Times,serif" font-size="14.00">/image/BrokenMachine.jpg</text>
<polyline fill="none" stroke="black" points="0,-51 365,-51"/>
<text text-anchor="middle" x="182.5" y="-33.7" font-family="Times,serif" font-size="14.00">data=(image data)</text>
<polyline fill="none" stroke="black" points="0,-25.75 365,-25.75"/>
<text text-anchor="middle" x="182.5" y="-8.45" font-family="Times,serif" font-size="14.00">0 links</text>
</g>
<!-- pCx0wJIy&#45;p5&#45;0oVTyRRWxwrxV&#45;jMygXLusNZjvlHnx4I -->
<g id="node2" class="node">
<title>pCx0wJIy&#45;p5&#45;0oVTyRRWxwrxV&#45;jMygXLusNZjvlHnx4I</title>
<polygon fill="none" stroke="black" points="401,-97.88 401,-224.12 877.75,-224.12 877.75,-97.88 401,-97.88"/>
<text text-anchor="middle" x="639.25" y="-206.82" font-family="Times,serif" font-size="14.00">Cx0wJI::4I</text>
<polyline fill="none" stroke="black" points="401,-198.88 877.75,-198.88"/>
<text text-anchor="middle" x="479.88" y="-181.57" font-family="Times,serif" font-size="14.00">signed: ZqfWVN::sg</text>
<polyline fill="none" stroke="black" points="558.75,-173.62 558.75,-198.88"/>
<text text-anchor="middle" x="718.25" y="-181.57" font-family="Times,serif" font-size="14.00">/thread/thread/Coffee machine broke!/msg</text>
<polyline fill="none" stroke="black" points="401,-173.62 877.75,-173.62"/>
<text text-anchor="middle" x="639.38" y="-156.32" font-family="Times,serif" font-size="14.00">data=Fix pls?</text>
<polyline fill="none" stroke="black" points="401,-148.38 877.75,-148.38"/>
<text text-anchor="middle" x="639.38" y="-131.07" font-family="Times,serif" font-size="14.00">1 links</text>
<polyline fill="none" stroke="black" points="401,-123.12 877.75,-123.12"/>
<text text-anchor="middle" x="639.38" y="-105.83" font-family="Times,serif" font-size="14.00">image link: MU1QSh::D4</text>
</g>
<!-- pCx0wJIy&#45;p5&#45;0oVTyRRWxwrxV&#45;jMygXLusNZjvlHnx4I&#45;&gt;pMU1QShgrSp4HdEsN9sLx&#45;MtEWZ7I3vXliAV1iUWHTD4 -->
<g id="edge1" class="edge">
<title>pCx0wJIy&#45;p5&#45;0oVTyRRWxwrxV&#45;jMygXLusNZjvlHnx4I:0&#45;&gt;pMU1QShgrSp4HdEsN9sLx&#45;MtEWZ7I3vXliAV1iUWHTD4:hash</title>
<path fill="none" stroke="black" d="M401,-110C386.82,-110 384.11,-97.69 375.3,-91.92"/>
<polygon fill="black" stroke="black" points="376.58,-88.36 366,-89 374.67,-95.09 376.58,-88.36"/>
</g>
<!-- pUOMsc6CksE9X&#45;fv8nuI1BBV4kBFfinW3Hx3&#45;Iu2gAAY -->
<g id="node3" class="node">
<title>pUOMsc6CksE9X&#45;fv8nuI1BBV4kBFfinW3Hx3&#45;Iu2gAAY</title>
<polygon fill="none" stroke="black" points="913.75,-115.25 913.75,-266.75 1389,-266.75 1389,-115.25 913.75,-115.25"/>
<text text-anchor="middle" x="1151.38" y="-249.45" font-family="Times,serif" font-size="14.00">UOMsc6::AY</text>
<polyline fill="none" stroke="black" points="913.75,-241.5 1389,-241.5"/>
<text text-anchor="middle" x="991.88" y="-224.2" font-family="Times,serif" font-size="14.00">signed: P8ZiwW::z8</text>
<polyline fill="none" stroke="black" points="1070,-216.25 1070,-241.5"/>
<text text-anchor="middle" x="1229.5" y="-224.2" font-family="Times,serif" font-size="14.00">/thread/thread/Coffee machine broke!/msg</text>
<polyline fill="none" stroke="black" points="913.75,-216.25 1389,-216.25"/>
<text text-anchor="middle" x="1151.38" y="-198.95" font-family="Times,serif" font-size="14.00">data=Hey [link:reply to]. Isn’t [link:image link] from 2015?</text>
<polyline fill="none" stroke="black" points="913.75,-191 1389,-191"/>
<text text-anchor="middle" x="1151.38" y="-173.7" font-family="Times,serif" font-size="14.00">2 links</text>
<polyline fill="none" stroke="black" points="913.75,-165.75 1389,-165.75"/>
<text text-anchor="middle" x="1151.38" y="-148.45" font-family="Times,serif" font-size="14.00">reply to: Cx0wJI::4I</text>
<polyline fill="none" stroke="black" points="913.75,-140.5 1389,-140.5"/>
<text text-anchor="middle" x="1151.38" y="-123.2" font-family="Times,serif" font-size="14.00">image link: MU1QSh::D4</text>
</g>
<!-- pUOMsc6CksE9X&#45;fv8nuI1BBV4kBFfinW3Hx3&#45;Iu2gAAY&#45;&gt;pMU1QShgrSp4HdEsN9sLx&#45;MtEWZ7I3vXliAV1iUWHTD4 -->
<g id="edge3" class="edge">
<title>pUOMsc6CksE9X&#45;fv8nuI1BBV4kBFfinW3Hx3&#45;Iu2gAAY:1&#45;&gt;pMU1QShgrSp4HdEsN9sLx&#45;MtEWZ7I3vXliAV1iUWHTD4:hash</title>
<path fill="none" stroke="black" d="M913.75,-128C889.83,-128 899.6,-97.73 877.75,-88 776.81,-43.05 496.61,-86.22 375.84,-88.87"/>
<polygon fill="black" stroke="black" points="375.96,-85.38 366,-89 376.04,-92.38 375.96,-85.38"/>
</g>
<!-- pUOMsc6CksE9X&#45;fv8nuI1BBV4kBFfinW3Hx3&#45;Iu2gAAY&#45;&gt;pCx0wJIy&#45;p5&#45;0oVTyRRWxwrxV&#45;jMygXLusNZjvlHnx4I -->
<g id="edge2" class="edge">
<title>pUOMsc6CksE9X&#45;fv8nuI1BBV4kBFfinW3Hx3&#45;Iu2gAAY:0&#45;&gt;pCx0wJIy&#45;p5&#45;0oVTyRRWxwrxV&#45;jMygXLusNZjvlHnx4I:hash</title>
<path fill="none" stroke="black" d="M913.75,-153C887.59,-153 902.15,-195.78 888.08,-208.49"/>
<polygon fill="black" stroke="black" points="887.09,-205.47 878.75,-212 889.34,-212.09 887.09,-205.47"/>
</g>
</g>
</svg>
