<?xml version="1.0" encoding="UTF-8" standalone="no"?>
<!DOCTYPE svg PUBLIC "-//W3C//DTD SVG 1.1//EN"
 "http://www.w3.org/Graphics/SVG/1.1/DTD/svg11.dtd">
<!-- Generated by graphviz version 8.0.4 (0)
 -->
<!-- Title: G Pages: 1 -->
<svg width="920pt" height="723pt"
 viewBox="0.00 0.00 920.00 723.00" xmlns="http://www.w3.org/2000/svg" xmlns:xlink="http://www.w3.org/1999/xlink">
<g id="graph0" class="graph" transform="scale(1 1) rotate(0) translate(4 719)">
<title>G</title>
<polygon fill="white" stroke="none" points="-4,4 -4,-719 916,-719 916,4 -4,4"/>
<!-- pYrs7iz3VznXh&#45;ogv4aM62VmMNxXFiT4P24tIfVz9sTk -->
<g id="node1" class="node">
<title>pYrs7iz3VznXh&#45;ogv4aM62VmMNxXFiT4P24tIfVz9sTk</title>
<polygon fill="none" stroke="black" points="0,-0.5 0,-101.5 179.75,-101.5 179.75,-0.5 0,-0.5"/>
<text text-anchor="middle" x="89.75" y="-84.2" font-family="Times,serif" font-size="14.00">Yrs7iz::Tk</text>
<polyline fill="none" stroke="black" points="0,-76.25 179.75,-76.25"/>
<text text-anchor="middle" x="79.62" y="-58.95" font-family="Times,serif" font-size="14.00">signed: AAAAAA::AA</text>
<polyline fill="none" stroke="black" points="159.25,-51 159.25,-76.25"/>
<text text-anchor="middle" x="169.5" y="-58.95" font-family="Times,serif" font-size="14.00"> </text>
<polyline fill="none" stroke="black" points="0,-51 179.75,-51"/>
<text text-anchor="middle" x="89.88" y="-33.7" font-family="Times,serif" font-size="14.00">data=Hello, Sol!</text>
<polyline fill="none" stroke="black" points="0,-25.75 179.75,-25.75"/>
<text text-anchor="middle" x="89.88" y="-8.45" font-family="Times,serif" font-size="14.00">0 links</text>
</g>
<!-- pc77MvXKMDwHuw2DNSa57pW6byDx&#45;CFKC71kJ_jZrp34 -->
<g id="node2" class="node">
<title>pc77MvXKMDwHuw2DNSa57pW6byDx&#45;CFKC71kJ_jZrp34</title>
<polygon fill="none" stroke="black" points="246.12,-461.5 246.12,-562.5 548.88,-562.5 548.88,-461.5 246.12,-461.5"/>
<text text-anchor="middle" x="397.5" y="-545.2" font-family="Times,serif" font-size="14.00">c77MvX::34</text>
<polyline fill="none" stroke="black" points="246.12,-537.25 548.88,-537.25"/>
<text text-anchor="middle" x="325.75" y="-519.95" font-family="Times,serif" font-size="14.00">signed: AAAAAA::AA</text>
<polyline fill="none" stroke="black" points="405.38,-512 405.38,-537.25"/>
<text text-anchor="middle" x="477.12" y="-519.95" font-family="Times,serif" font-size="14.00">/my/example/path</text>
<polyline fill="none" stroke="black" points="246.12,-512 548.88,-512"/>
<text text-anchor="middle" x="397.5" y="-494.7" font-family="Times,serif" font-size="14.00">data=some data</text>
<polyline fill="none" stroke="black" points="246.12,-486.75 548.88,-486.75"/>
<text text-anchor="middle" x="397.5" y="-469.45" font-family="Times,serif" font-size="14.00">0 links</text>
</g>
<!-- pG&#45;soA9GJ&#45;8GPPyqY3EH6ltNspmmxJ86hoeN1ZP&#45;GikQ -->
<g id="node3" class="node">
<title>pG&#45;soA9GJ&#45;8GPPyqY3EH6ltNspmmxJ86hoeN1ZP&#45;GikQ</title>
<polygon fill="none" stroke="black" points="223.62,-341.5 223.62,-442.5 571.38,-442.5 571.38,-341.5 223.62,-341.5"/>
<text text-anchor="middle" x="397.5" y="-425.2" font-family="Times,serif" font-size="14.00">G&#45;soA9::kQ</text>
<polyline fill="none" stroke="black" points="223.62,-417.25 571.38,-417.25"/>
<text text-anchor="middle" x="303.25" y="-399.95" font-family="Times,serif" font-size="14.00">signed: AAAAAA::AA</text>
<polyline fill="none" stroke="black" points="382.88,-392 382.88,-417.25"/>
<text text-anchor="middle" x="477.12" y="-399.95" font-family="Times,serif" font-size="14.00">/my/example/other_path</text>
<polyline fill="none" stroke="black" points="223.62,-392 571.38,-392"/>
<text text-anchor="middle" x="397.5" y="-374.7" font-family="Times,serif" font-size="14.00">data=</text>
<polyline fill="none" stroke="black" points="223.62,-366.75 571.38,-366.75"/>
<text text-anchor="middle" x="397.5" y="-349.45" font-family="Times,serif" font-size="14.00">0 links</text>
</g>
<!-- pkf3qA7I94kYzgkG6MDdUMBXKUbXuoXUQbndWhGLvcBo -->
<g id="node4" class="node">
<title>pkf3qA7I94kYzgkG6MDdUMBXKUbXuoXUQbndWhGLvcBo</title>
<polygon fill="none" stroke="black" points="215.75,-221.5 215.75,-322.5 579.25,-322.5 579.25,-221.5 215.75,-221.5"/>
<text text-anchor="middle" x="397.25" y="-305.2" font-family="Times,serif" font-size="14.00">kf3qA7::Bo</text>
<polyline fill="none" stroke="black" points="215.75,-297.25 579.25,-297.25"/>
<text text-anchor="middle" x="294.62" y="-279.95" font-family="Times,serif" font-size="14.00">signed: tb0anw::W4</text>
<polyline fill="none" stroke="black" points="373.5,-272 373.5,-297.25"/>
<text text-anchor="middle" x="476.38" y="-279.95" font-family="Times,serif" font-size="14.00">/my/example/path/subpath</text>
<polyline fill="none" stroke="black" points="215.75,-272 579.25,-272"/>
<text text-anchor="middle" x="397.5" y="-254.7" font-family="Times,serif" font-size="14.00">data=</text>
<polyline fill="none" stroke="black" points="215.75,-246.75 579.25,-246.75"/>
<text text-anchor="middle" x="397.5" y="-229.45" font-family="Times,serif" font-size="14.00">0 links</text>
</g>
<!-- pLtlNcYXCdWAzRCXwMrPw0d8Jr6k4p8CXuxF1g13PjLY -->
<g id="node5" class="node">
<title>pLtlNcYXCdWAzRCXwMrPw0d8Jr6k4p8CXuxF1g13PjLY</title>
<polygon fill="none" stroke="black" points="249.12,-51.25 249.12,-202.75 545.88,-202.75 545.88,-51.25 249.12,-51.25"/>
<text text-anchor="middle" x="397.5" y="-185.45" font-family="Times,serif" font-size="14.00">LtlNcY::LY</text>
<polyline fill="none" stroke="black" points="249.12,-177.5 545.88,-177.5"/>
<text text-anchor="middle" x="328.75" y="-160.2" font-family="Times,serif" font-size="14.00">signed: AAAAAA::AA</text>
<polyline fill="none" stroke="black" points="408.38,-152.25 408.38,-177.5"/>
<text text-anchor="middle" x="477.12" y="-160.2" font-family="Times,serif" font-size="14.00">/my/example/link</text>
<polyline fill="none" stroke="black" points="249.12,-152.25 545.88,-152.25"/>
<text text-anchor="middle" x="397.5" y="-134.95" font-family="Times,serif" font-size="14.00">data=</text>
<polyline fill="none" stroke="black" points="249.12,-127 545.88,-127"/>
<text text-anchor="middle" x="397.5" y="-109.7" font-family="Times,serif" font-size="14.00">2 links</text>
<polyline fill="none" stroke="black" points="249.12,-101.75 545.88,-101.75"/>
<text text-anchor="middle" x="397.5" y="-84.45" font-family="Times,serif" font-size="14.00">my first link: Yrs7iz::Tk</text>
<polyline fill="none" stroke="black" points="249.12,-76.5 545.88,-76.5"/>
<text text-anchor="middle" x="397.5" y="-59.2" font-family="Times,serif" font-size="14.00">other link: Yrs7iz::Tk</text>
</g>
<!-- pLtlNcYXCdWAzRCXwMrPw0d8Jr6k4p8CXuxF1g13PjLY&#45;&gt;pYrs7iz3VznXh&#45;ogv4aM62VmMNxXFiT4P24tIfVz9sTk -->
<g id="edge1" class="edge">
<title>pLtlNcYXCdWAzRCXwMrPw0d8Jr6k4p8CXuxF1g13PjLY:0&#45;&gt;pYrs7iz3VznXh&#45;ogv4aM62VmMNxXFiT4P24tIfVz9sTk:hash</title>
<path fill="none" stroke="black" d="M248.5,-89C221.88,-89 212.66,-89 190.52,-89"/>
<polygon fill="black" stroke="black" points="190.75,-85.5 180.75,-89 190.75,-92.5 190.75,-85.5"/>
</g>
<!-- pLtlNcYXCdWAzRCXwMrPw0d8Jr6k4p8CXuxF1g13PjLY&#45;&gt;pYrs7iz3VznXh&#45;ogv4aM62VmMNxXFiT4P24tIfVz9sTk -->
<g id="edge2" class="edge">
<title>pLtlNcYXCdWAzRCXwMrPw0d8Jr6k4p8CXuxF1g13PjLY:1&#45;&gt;pYrs7iz3VznXh&#45;ogv4aM62VmMNxXFiT4P24tIfVz9sTk:hash</title>
<path fill="none" stroke="black" d="M248.5,-64C219.92,-64 213.59,-83.31 190.4,-87.99"/>
<polygon fill="black" stroke="black" points="190.37,-84.57 180.75,-89 191.04,-91.54 190.37,-84.57"/>
</g>
<!-- pRCBO18gQylfbhpL&#45;x7mmJK48mHU0cvGowqMDAdBXbTo -->
<g id="node6" class="node">
<title>pRCBO18gQylfbhpL&#45;x7mmJK48mHU0cvGowqMDAdBXbTo</title>
<polygon fill="none" stroke="black" points="615.25,-367.38 615.25,-594.62 912,-594.62 912,-367.38 615.25,-367.38"/>
<text text-anchor="middle" x="763.38" y="-577.33" font-family="Times,serif" font-size="14.00">RCBO18::To</text>
<polyline fill="none" stroke="black" points="615.25,-569.38 912,-569.38"/>
<text text-anchor="middle" x="694.88" y="-552.08" font-family="Times,serif" font-size="14.00">signed: AAAAAA::AA</text>
<polyline fill="none" stroke="black" points="774.5,-544.12 774.5,-569.38"/>
<text text-anchor="middle" x="843.25" y="-552.08" font-family="Times,serif" font-size="14.00">/my/example/link</text>
<polyline fill="none" stroke="black" points="615.25,-544.12 912,-544.12"/>
<text text-anchor="middle" x="763.62" y="-526.83" font-family="Times,serif" font-size="14.00">data=</text>
<polyline fill="none" stroke="black" points="615.25,-518.88 912,-518.88"/>
<text text-anchor="middle" x="763.62" y="-501.57" font-family="Times,serif" font-size="14.00">5 links</text>
<polyline fill="none" stroke="black" points="615.25,-493.62 912,-493.62"/>
<text text-anchor="middle" x="763.62" y="-476.32" font-family="Times,serif" font-size="14.00">mytag: Yrs7iz::Tk</text>
<polyline fill="none" stroke="black" points="615.25,-468.38 912,-468.38"/>
<text text-anchor="middle" x="763.62" y="-451.07" font-family="Times,serif" font-size="14.00">mytag: c77MvX::34</text>
<polyline fill="none" stroke="black" points="615.25,-443.12 912,-443.12"/>
<text text-anchor="middle" x="763.62" y="-425.82" font-family="Times,serif" font-size="14.00">mytag: G&#45;soA9::kQ</text>
<polyline fill="none" stroke="black" points="615.25,-417.88 912,-417.88"/>
<text text-anchor="middle" x="763.62" y="-400.57" font-family="Times,serif" font-size="14.00">mytag: kf3qA7::Bo</text>
<polyline fill="none" stroke="black" points="615.25,-392.62 912,-392.62"/>
<text text-anchor="middle" x="763.62" y="-375.32" font-family="Times,serif" font-size="14.00">mytag: LtlNcY::LY</text>
</g>
<!-- pRCBO18gQylfbhpL&#45;x7mmJK48mHU0cvGowqMDAdBXbTo&#45;&gt;pYrs7iz3VznXh&#45;ogv4aM62VmMNxXFiT4P24tIfVz9sTk -->
<g id="edge3" class="edge">
<title>pRCBO18gQylfbhpL&#45;x7mmJK48mHU0cvGowqMDAdBXbTo:0&#45;&gt;pYrs7iz3VznXh&#45;ogv4aM62VmMNxXFiT4P24tIfVz9sTk:hash</title>
<path fill="none" stroke="black" d="M615.25,-481C571.76,-481 615.22,-547.55 579.25,-572 445.64,-662.83 334.16,-681.91 215.75,-572 178.93,-537.82 226.39,-146.48 189.06,-94.65"/>
<polygon fill="black" stroke="black" points="191.11,-91.2 180.75,-89 187.48,-97.18 191.11,-91.2"/>
</g>
<!-- pRCBO18gQylfbhpL&#45;x7mmJK48mHU0cvGowqMDAdBXbTo&#45;&gt;pc77MvXKMDwHuw2DNSa57pW6byDx&#45;CFKC71kJ_jZrp34 -->
<g id="edge4" class="edge">
<title>pRCBO18gQylfbhpL&#45;x7mmJK48mHU0cvGowqMDAdBXbTo:1&#45;&gt;pc77MvXKMDwHuw2DNSa57pW6byDx&#45;CFKC71kJ_jZrp34:hash</title>
<path fill="none" stroke="black" d="M615.25,-456C568.25,-456 595.36,-535.89 559.94,-548.37"/>
<polygon fill="black" stroke="black" points="559.84,-545 550.5,-550 560.92,-551.91 559.84,-545"/>
</g>
<!-- pRCBO18gQylfbhpL&#45;x7mmJK48mHU0cvGowqMDAdBXbTo&#45;&gt;pG&#45;soA9GJ&#45;8GPPyqY3EH6ltNspmmxJ86hoeN1ZP&#45;GikQ -->
<g id="edge5" class="edge">
<title>pRCBO18gQylfbhpL&#45;x7mmJK48mHU0cvGowqMDAdBXbTo:2&#45;&gt;pG&#45;soA9GJ&#45;8GPPyqY3EH6ltNspmmxJ86hoeN1ZP&#45;GikQ:hash</title>
<path fill="none" stroke="black" d="M615.25,-430C600.41,-430 594.26,-430 583.22,-430"/>
<polygon fill="black" stroke="black" points="583.5,-426.5 573.5,-430 583.5,-433.5 583.5,-426.5"/>
</g>
<!-- pRCBO18gQylfbhpL&#45;x7mmJK48mHU0cvGowqMDAdBXbTo&#45;&gt;pkf3qA7I94kYzgkG6MDdUMBXKUbXuoXUQbndWhGLvcBo -->
<g id="edge6" class="edge">
<title>pRCBO18gQylfbhpL&#45;x7mmJK48mHU0cvGowqMDAdBXbTo:3&#45;&gt;pkf3qA7I94kYzgkG6MDdUMBXKUbXuoXUQbndWhGLvcBo:hash</title>
<path fill="none" stroke="black" d="M615.25,-405C574.51,-405 614.74,-327.65 589.82,-312.54"/>
<polygon fill="black" stroke="black" points="590.79,-308.93 580.25,-310 589.15,-315.74 590.79,-308.93"/>
</g>
<!-- pRCBO18gQylfbhpL&#45;x7mmJK48mHU0cvGowqMDAdBXbTo&#45;&gt;pLtlNcYXCdWAzRCXwMrPw0d8Jr6k4p8CXuxF1g13PjLY -->
<g id="edge7" class="edge">
<title>pRCBO18gQylfbhpL&#45;x7mmJK48mHU0cvGowqMDAdBXbTo:4&#45;&gt;pLtlNcYXCdWAzRCXwMrPw0d8Jr6k4p8CXuxF1g13PjLY:hash</title>
<path fill="none" stroke="black" d="M615.25,-380C538.89,-380 622.06,-275.23 579.25,-212 571.8,-201 566.9,-194.04 557.34,-191.31"/>
<polygon fill="black" stroke="black" points="557.85,-187.73 547.5,-190 557.01,-194.67 557.85,-187.73"/>
</g>
<!-- pmAXVJpE8ZCrTjZF40QI7LLH0Ss&#45;_wEjxUlZt0Pm6fhU -->
<g id="node7" class="node">
<title>pmAXVJpE8ZCrTjZF40QI7LLH0Ss&#45;_wEjxUlZt0Pm6fhU</title>
<polygon fill="none" stroke="black" points="673.75,-613.5 673.75,-714.5 853.5,-714.5 853.5,-613.5 673.75,-613.5"/>
<text text-anchor="middle" x="763.25" y="-697.2" font-family="Times,serif" font-size="14.00">mAXVJp::hU</text>
<polyline fill="none" stroke="black" points="673.75,-689.25 853.5,-689.25"/>
<text text-anchor="middle" x="753.38" y="-671.95" font-family="Times,serif" font-size="14.00">signed: AAAAAA::AA</text>
<polyline fill="none" stroke="black" points="833,-664 833,-689.25"/>
<text text-anchor="middle" x="843.25" y="-671.95" font-family="Times,serif" font-size="14.00"> </text>
<polyline fill="none" stroke="black" points="673.75,-664 853.5,-664"/>
<text text-anchor="middle" x="763.62" y="-646.7" font-family="Times,serif" font-size="14.00">data=hello world</text>
<polyline fill="none" stroke="black" points="673.75,-638.75 853.5,-638.75"/>
<text text-anchor="middle" x="763.62" y="-621.45" font-family="Times,serif" font-size="14.00">0 links</text>
</g>
</g>
</svg>
